<svg width="185" height="172" viewBox="0 0 185 172" fill="none" xmlns="http://www.w3.org/2000/svg">
<g id="Group 1">
<path id="Star 1" d="M93.4285 167.357C93.2055 168.415 91.6945 168.415 91.4715 167.357L84.8775 136.065C84.6899 135.175 83.5077 134.977 83.0408 135.758L66.3533 163.658C65.7964 164.589 64.3633 164.091 64.5034 163.016L68.6071 131.513C68.7258 130.602 67.6563 130.026 66.9614 130.627L41.8912 152.305C41.0643 153.02 39.8542 152.08 40.3424 151.102L54.6181 122.505C55.0347 121.671 54.1831 120.771 53.3269 121.141L22.4557 134.476C21.4436 134.914 20.5725 133.631 21.3517 132.851L44.3018 109.885C44.9704 109.216 44.4224 108.078 43.4824 108.184L9.90388 111.969C8.8013 112.093 8.34682 110.597 9.33223 110.087L38.714 94.8803C39.561 94.4419 39.372 93.1795 38.4338 93.0084L5.395 86.9838C4.30087 86.7843 4.30087 85.2157 5.39502 85.0162L38.4338 78.9916C39.372 78.8205 39.561 77.5581 38.714 77.1197L9.33223 61.9127C8.34682 61.4027 8.8013 59.9066 9.90388 60.0309L43.4824 63.8159C44.4224 63.9218 44.9704 62.7844 44.3018 62.1153L21.3518 39.1485C20.5725 38.3687 21.4436 37.0865 22.4557 37.5237L53.3269 50.8594C54.1831 51.2292 55.0347 50.3292 54.6181 49.4947L40.3424 20.8978C39.8542 19.9198 41.0643 18.9798 41.8912 19.6947L66.9614 41.373C67.6564 41.9739 68.7258 41.3984 68.6071 40.4874L64.5034 8.98439C64.3633 7.90857 65.7964 7.41084 66.3533 8.34192L83.0408 36.2421C83.5077 37.0228 84.6899 36.8251 84.8775 35.935L91.4715 4.64346C91.6945 3.58505 93.2055 3.58505 93.4285 4.64346L100.023 35.935C100.21 36.8251 101.392 37.0228 101.859 36.2421L118.547 8.3419C119.104 7.41084 120.537 7.90857 120.397 8.98439L116.293 40.4874C116.174 41.3985 117.244 41.9739 117.939 41.373L143.009 19.6947C143.836 18.9798 145.046 19.9198 144.558 20.8978L130.282 49.4947C129.865 50.3292 130.717 51.2292 131.573 50.8594L162.444 37.5237C163.456 37.0865 164.328 38.3687 163.548 39.1485L140.598 62.1153C139.93 62.7844 140.478 63.9218 141.418 63.8159L174.996 60.0309C176.099 59.9066 176.553 61.4027 175.568 61.9127L146.186 77.1197C145.339 77.5581 145.528 78.8205 146.466 78.9916L179.505 85.0162C180.599 85.2157 180.599 86.7843 179.505 86.9838L146.466 93.0084C145.528 93.1795 145.339 94.4419 146.186 94.8803L175.568 110.087C176.553 110.597 176.099 112.093 174.996 111.969L141.418 108.184C140.478 108.078 139.93 109.216 140.598 109.885L163.548 132.851C164.328 133.631 163.456 134.914 162.444 134.476L131.573 121.141C130.717 120.771 129.865 121.671 130.282 122.505L144.558 151.102C145.046 152.08 143.836 153.02 143.009 152.305L117.939 130.627C117.244 130.026 116.174 130.602 116.293 131.513L120.397 163.016C120.537 164.091 119.104 164.589 118.547 163.658L101.859 135.758C101.392 134.977 100.21 135.175 100.023 136.065L93.4285 167.357Z" fill="#E9F7CA"/>
<path id="Arrow 4" d="M123.983 88C125.088 88 125.983 87.1046 125.983 86C125.983 84.8954 125.088 84 123.983 84V88ZM70.2525 84.5858C69.4714 85.3668 69.4714 86.6332 70.2525 87.4142L82.9804 100.142C83.7614 100.923 85.0278 100.923 85.8088 100.142C86.5899 99.3611 86.5899 98.0948 85.8088 97.3137L74.4951 86L85.8088 74.6863C86.5899 73.9052 86.5899 72.6389 85.8088 71.8579C85.0278 71.0768 83.7614 71.0768 82.9804 71.8579L70.2525 84.5858ZM123.983 84L71.6667 84V88L123.983 88V84Z" fill="#848881"/>
</g>
</svg>
